<svg width="24" height="24" viewBox="0 0 24 24" fill="none" xmlns="http://www.w3.org/2000/svg">
<path fill-rule="evenodd" clip-rule="evenodd" d="M9.5 6C9.5 7.10457 8.60457 8 7.5 8C6.39543 8 5.5 7.10457 5.5 6C5.5 4.89543 6.39543 4 7.5 4C8.60457 4 9.5 4.89543 9.5 6ZM6 9C4.89543 9 4 9.89543 4 11V15C4 15.5523 4.44772 16 5 16H6V19C6 19.5523 6.44772 20 7 20H8C8.55228 20 9 19.5523 9 19V16H10C10.5523 16 11 15.5523 11 15V11C11 9.89543 10.1046 9 9 9H6ZM18.5 6C18.5 7.10457 17.6046 8 16.5 8C15.3955 8 14.5 7.10457 14.5 6C14.5 4.89543 15.3955 4 16.5 4C17.6046 4 18.5 4.89543 18.5 6ZM16.3188 9C15.5188 9 14.7957 9.47679 14.4805 10.2122L12.5974 14.6061C12.3146 15.2659 12.7987 16 13.5166 16H15V19C15 19.5523 15.4478 20 16 20H17C17.5523 20 18 19.5523 18 19V16H19.4835C20.2014 16 20.6854 15.2659 20.4026 14.6061L18.5195 10.2122C18.2044 9.47679 17.4813 9 16.6812 9H16.3188Z" fill="#698CA5"/>
</svg>
