<svg width="24" height="24" viewBox="0 0 24 24" fill="none" xmlns="http://www.w3.org/2000/svg">
<g clip-path="url(#clip0_1712_16438)">
<mask id="mask0_1712_16438" style="mask-type:alpha" maskUnits="userSpaceOnUse" x="0" y="0" width="24" height="24">
<path fill-rule="evenodd" clip-rule="evenodd" d="M7 3C5.34315 3 4 4.34315 4 6V20C4 20.5523 4.44772 21 5 21H6C6.55228 21 7 20.5523 7 20H17C17 20.5523 17.4477 21 18 21H19C19.5523 21 20 20.5523 20 20V6C20 4.34315 18.6569 3 17 3H7ZM7 6C6.44772 6 6 6.44772 6 7V13C6 13.5523 6.44643 14 6.99871 14H12H17.0013C17.5536 14 18 13.5523 18 13V7C18 6.44772 17.5523 6 17 6H7ZM8 17C8 17.5523 7.55228 18 7 18C6.44772 18 6 17.5523 6 17C6 16.4477 6.44772 16 7 16C7.55228 16 8 16.4477 8 17ZM17 18C17.5523 18 18 17.5523 18 17C18 16.4477 17.5523 16 17 16C16.4477 16 16 16.4477 16 17C16 17.5523 16.4477 18 17 18Z" fill="#698CA5"/>
</mask>
<g mask="url(#mask0_1712_16438)">
<rect width="24" height="24" fill="#698CA5"/>
</g>
</g>
<defs>
<clipPath id="clip0_1712_16438">
<rect width="24" height="24" fill="white"/>
</clipPath>
</defs>
</svg>
