<svg width="24" height="24" viewBox="0 0 24 24" fill="none" xmlns="http://www.w3.org/2000/svg">
<path fill-rule="evenodd" clip-rule="evenodd" d="M4 4H4.75H10.75H11.5V4.75V10.75V11.5H10.75H4.75H4V10.75V4.75V4ZM5.5 5.5V10H10V5.5H5.5ZM6.5 6.5H9V9H6.5V6.5ZM4 12.5H4.75H10.75H11.5V13.25V19.25V20H10.75H4.75H4V19.25V13.25V12.5ZM5.5 14V18.5H10V14H5.5ZM6.5 15H9V17.5H6.5V15ZM13.25 4H12.5V4.75V10.75V11.5H13.25H19.25H20V10.75V4.75V4H19.25H13.25ZM14 10V5.5H18.5V10H14ZM17.5 6.5H15V9H17.5V6.5ZM20 18.5V12.5H18.5V15H15V12.5H12.5V15H15V18.5H12.5V20H18.5H20V18.5ZM18.5 17H17V18.5H18.5V17Z" fill="#24D474"/>
</svg>
