<svg width="24" height="24" viewBox="0 0 24 24" fill="none" xmlns="http://www.w3.org/2000/svg">
<g clip-path="url(#clip0_1712_16469)">
<mask id="mask0_1712_16469" style="mask-type:alpha" maskUnits="userSpaceOnUse" x="0" y="0" width="24" height="24">
<path fill-rule="evenodd" clip-rule="evenodd" d="M12 7.875C12 9.73896 10.489 11.25 8.625 11.25C6.76104 11.25 5.25 9.73896 5.25 7.875C5.25 6.01104 6.76104 4.5 8.625 4.5C10.489 4.5 12 6.01104 12 7.875ZM2.25 17.7C2.25 15.3804 4.1304 13.5 6.45 13.5H10.8C13.1196 13.5 15 15.3804 15 17.7C15 18.2799 14.5299 18.75 13.95 18.75H3.3C2.7201 18.75 2.25 18.2799 2.25 17.7ZM16.875 12.75C18.3247 12.75 19.5 11.5747 19.5 10.125C19.5 8.67525 18.3247 7.5 16.875 7.5C15.4253 7.5 14.25 8.67525 14.25 10.125C14.25 11.5747 15.4253 12.75 16.875 12.75ZM17.25 15C16.9353 15 16.6319 15.0485 16.3469 15.1383C16.538 15.5433 16.6854 15.9713 16.7835 16.4178L17.2956 18.75H20.25C20.6642 18.75 21 18.4142 21 18C21 16.3431 19.6569 15 18 15H17.25Z" fill="#698CA5"/>
</mask>
<g mask="url(#mask0_1712_16469)">
<rect width="24" height="24" fill="#698CA5"/>
</g>
</g>
<defs>
<clipPath id="clip0_1712_16469">
<rect width="24" height="24" fill="white"/>
</clipPath>
</defs>
</svg>
