<svg width="16" height="16" viewBox="0 0 16 16" fill="none" xmlns="http://www.w3.org/2000/svg">
<path fill-rule="evenodd" clip-rule="evenodd" d="M8.92599 3.478C9.43933 3.534 9.84999 3.625 10.158 3.751C10.4707 3.877 10.697 4.04267 10.837 4.248C10.977 4.45333 11.047 4.71 11.047 5.018C11.047 5.44267 10.8743 5.79733 10.529 6.082C10.1837 6.36667 9.72166 6.54867 9.14299 6.628V7.076C9.14299 7.12733 9.12433 7.17167 9.08699 7.209C9.04966 7.24633 9.00533 7.265 8.95399 7.265H8.01599C7.96466 7.265 7.92033 7.24633 7.88299 7.209C7.84566 7.17167 7.82699 7.12733 7.82699 7.076V6.628H6.16101V5.305H7.59601H8.51299C8.95633 5.305 9.17799 5.23733 9.17799 5.102C9.17799 5.046 9.14766 4.99933 9.08699 4.962C9.03099 4.92 8.92833 4.885 8.77899 4.857C8.63433 4.82433 8.41966 4.79167 8.13499 4.759C7.49566 4.68433 7.00566 4.52567 6.66499 4.283C6.32433 4.03567 6.15399 3.688 6.15399 3.24C6.15399 2.84333 6.30333 2.50733 6.60199 2.232C6.90066 1.952 7.30899 1.77 7.82699 1.686V1.189C7.82699 1.13767 7.84566 1.09333 7.88299 1.056C7.92033 1.01867 7.96466 1 8.01599 1H8.95399C9.00533 1 9.04966 1.01867 9.08699 1.056C9.12433 1.09333 9.14299 1.13767 9.14299 1.189V1.686H10.696V2.995H9.19103H8.48499C8.17233 2.995 8.01599 3.06033 8.01599 3.191C8.01599 3.261 8.07666 3.317 8.19799 3.359C8.31932 3.39633 8.56199 3.436 8.92599 3.478ZM8 8H10C10.5523 8 11 8.44772 11 9C11 9.55228 10.5523 10 10 10H7.33333L7 11H10.9998L13.0354 8.96447C13.4259 8.57394 14.059 8.57394 14.4496 8.96447L14.5355 9.05044C14.9261 9.44096 14.9261 10.0741 14.5355 10.4647L11 14.0002L10.9998 14H6H2V11L4.41421 8.58579C4.78929 8.21071 5.29799 8 5.82843 8H6H8Z" fill="#24D474"/>
</svg>
