<svg width="24" height="24" viewBox="0 0 24 24" fill="none" xmlns="http://www.w3.org/2000/svg">
<path fill-rule="evenodd" clip-rule="evenodd" d="M7.96118 6.60794C7.74456 5.52482 6.69091 4.82239 5.60779 5.03901C4.52467 5.25563 3.82223 6.30928 4.03886 7.3924L5.39575 14.1769C5.95666 16.9814 8.41915 19.0002 11.2792 19.0002H16C17.1046 19.0002 18 18.1047 18 17.0002C18 15.8956 17.1046 15.0002 16 15.0002H11.2792C10.3259 15.0002 9.50504 14.3273 9.31807 13.3924L7.96118 6.60794ZM13.6624 10.3191L12.637 12H11.0147L12.8018 9.37426L11.2197 7.01952H12.8347L13.6624 8.41478L14.49 7.01952H16.105L14.5266 9.37426L16.3137 12H14.6914L13.6624 10.3191ZM20.1004 10.7768V12H16.7715V7.01952H18.1521V10.7768H20.1004Z" fill="#698CA5"/>
</svg>
