<svg width="24" height="24" viewBox="0 0 24 24" fill="none" xmlns="http://www.w3.org/2000/svg">
<path fill-rule="evenodd" clip-rule="evenodd" d="M5.5 4C4.94772 4 4.5 4.44772 4.5 5V10V11C4.5 12.4865 5.58114 13.7205 7 13.9585V18.5C7 19.3284 7.67157 20 8.5 20C9.32843 20 10 19.3284 10 18.5V13.9585C11.4189 13.7205 12.5 12.4865 12.5 11V10V5C12.5 4.44772 12.0523 4 11.5 4C10.9477 4 10.5 4.44772 10.5 5V10H9.5V5C9.5 4.44772 9.05228 4 8.5 4C7.94772 4 7.5 4.44772 7.5 5V10H6.5V5C6.5 4.44772 6.05228 4 5.5 4ZM15 8C15 5.79086 16.7909 4 19 4V14V18.5C19 19.3284 18.3284 20 17.5 20C16.6716 20 16 19.3284 16 18.5V17.1655C16 17.0554 16.0091 16.9454 16.0272 16.8367L16.5 14H15V8Z" fill="#698CA5"/>
</svg>
