<svg width="24" height="24" viewBox="0 0 24 24" fill="none" xmlns="http://www.w3.org/2000/svg">
<path fill-rule="evenodd" clip-rule="evenodd" d="M10.4098 17.5858C11.1909 16.8047 12.4572 16.8047 13.2382 17.5858L11.824 19L10.4098 17.5858ZM7.58138 14.7574C9.92453 12.4142 13.7235 12.4142 16.0667 14.7574L14.6524 16.1716C13.0904 14.6095 10.5577 14.6095 8.99559 16.1716L7.58138 14.7574ZM4.75295 11.9289C8.6582 8.02369 14.9898 8.02369 18.8951 11.9289L17.4809 13.3431C14.3567 10.219 9.29136 10.219 6.16717 13.3431L4.75295 11.9289ZM2 9.17598C2.02486 9.15075 2.04983 9.12559 2.07491 9.1005C7.51717 3.65825 16.3253 3.63328 21.7984 9.02559L20.3842 10.4399C15.6921 5.82856 8.15033 5.85352 3.48913 10.5147C3.46404 10.5398 3.43908 10.565 3.41426 10.5902L2 9.17598Z" fill="#698CA5"/>
</svg>
